<?xml version="1.0" encoding="iso-8859-1"?>
<!-- Uploaded to: SVG Repo, www.svgrepo.com, Generator: SVG Repo Mixer Tools -->
<!DOCTYPE svg PUBLIC "-//W3C//DTD SVG 1.1//EN" "http://www.w3.org/Graphics/SVG/1.1/DTD/svg11.dtd">
<svg fill="#000000" height="800px" width="800px" version="1.1" id="Capa_1" xmlns="http://www.w3.org/2000/svg" xmlns:xlink="http://www.w3.org/1999/xlink" 
	 viewBox="0 0 484.853 484.853" xml:space="preserve">
<g id="XMLID_123_">
	<path id="XMLID_131_" d="M102.984,196.089c-6.084,0-9.539,0.49-11.334,0.819v30.55h9.858c12.465,0,19.865-6.242,19.865-15.929
		C121.374,201.344,114.479,196.249,102.984,196.089z"/>
	<path id="XMLID_130_" d="M246.282,196.418c-5.077,0-8.539,0.49-10.338,0.977v32.696c2.131,0.49,4.753,0.66,8.377,0.66
		c13.308,0,21.508-6.742,21.508-18.074C265.829,202.494,258.768,196.418,246.282,196.418z"/>
	<path id="XMLID_129_" d="M306.117,1.029c-30.336,0-58.905,7.615-83.93,20.961c95.901,20.104,168.158,105.299,168.158,207.082
		v254.753l94.508-65.743V179.764C484.853,81.055,404.821,1.029,306.117,1.029z"/>
	<path id="XMLID_124_" d="M178.742,50.334C80.032,50.334,0,130.362,0,229.072v254.753h127.374h230.103V229.072
		C357.477,130.362,277.447,50.334,178.742,50.334z M141.408,257.85c1.508,5.432,3.015,11.234,4.395,16.412
		c0.951,3.522,0.21,7.295-2.001,10.191c-2.233,2.897-5.67,4.605-9.328,4.605h-1.029c-5.504,0-10.354-3.618-11.927-8.906
		c-1.28-4.358-2.775-10.042-4.409-16.887c-2.953-13.795-7.742-17.574-17.914-17.734H91.65v31.131
		c0,6.845-5.555,12.396-12.404,12.396c-6.855,0-12.411-5.552-12.411-12.396v-85.857c0-6.418,4.896-11.787,11.299-12.349
		c6.484-0.569,14.031-0.931,22.054-0.931c16.42,0,27.932,2.464,35.796,8.706c6.579,5.255,10.19,12.979,10.19,23.16
		c0,14.125-10.014,23.82-19.532,27.263v0.498C134.344,240.276,138.617,247.666,141.408,257.85z M189.43,276.493
		c0,6.943-5.635,12.566-12.566,12.566c-6.938,0-12.566-5.623-12.566-12.566V190.91c0-6.939,5.628-12.565,12.566-12.565
		c6.932,0,12.566,5.626,12.566,12.565V276.493z M280.451,238.3c-8.552,8.051-21.2,11.662-35.966,11.662
		c-3.294,0-6.265-0.16-8.541-0.49v27.191c0,6.845-5.553,12.396-12.409,12.396c-6.855,0-12.41-5.552-12.41-12.396V190.76
		c0-6.422,4.902-11.79,11.307-12.35c6.163-0.548,13.588-0.884,22.529-0.884c15.445,0,26.454,2.953,33.835,8.866
		c7.065,5.586,11.845,14.785,11.845,25.627C290.641,222.862,287.018,232.057,280.451,238.3z"/>
</g>
</svg>